<svg xmlns="http://www.w3.org/2000/svg" viewBox="0 0 64 64" width="100%" height="100%">
  <rect x="4" y="4" width="56" height="56" rx="12" fill="#ED2224"/>
  <path d="M44.5 35.8C42.8 35.1 39.8 35.3 36.5 36.3C34.8 33.2 33.1 29 32.2 25.2C33.1 21.2 33.8 17.5 32 16.2C31.1 15.5 29.8 15.5 29.2 16.3C28.2 17.5 28.5 20.2 29.4 24.1C27.5 29.7 24.6 36.1 22.2 40C19.2 41.5 16 43.8 16.2 45.6C16.3 46.5 17.2 47.1 18.2 47.1C20.5 47.1 24.3 43.1 27.5 38.6C32.1 36.9 37.8 35.6 42 35.8C43.8 37.8 46.5 38.1 47.2 37.4C48 36.7 47.2 35.3 44.5 35.8ZM30.4 19C30.8 18.5 31.4 18.6 31.5 19.3C31.7 20.7 31.2 23 30.6 25.6C30 22.9 30 20 30.4 19ZM20.2 44.7C19.4 45.3 18.5 45.5 18.2 45C18.1 44.7 18.7 43.8 20.6 42.1C22 41.1 23.9 39.9 25.6 38.8C23.6 41.7 21.3 44 20.2 44.7ZM31.1 33.8C32 31.2 33.3 28.4 34.6 25.7C35.5 28.4 36.8 31.5 38.1 33.7C35.7 33.9 33.3 34 31.1 33.8ZM45.5 36.8C44.7 36.9 43.6 36.5 42.6 35.8C44.1 35.6 45.3 35.7 45.7 36.1C45.9 36.3 45.8 36.7 45.5 36.8Z" fill="#FFFFFF"/>
</svg>
