<svg xmlns="http://www.w3.org/2000/svg" viewBox="0 0 64 64" width="100%" height="100%">
  <rect x="22" y="6" width="36" height="52" rx="4" fill="#107C41"/>
  <rect x="30" y="16" width="20" height="8" rx="1" fill="#185ABD"/>
  <rect x="30" y="28" width="20" height="8" rx="1" fill="#21A366"/>
  <rect x="30" y="40" width="20" height="8" rx="1" fill="#33C481"/>
  <path d="M6 14C6 10.6863 8.68629 8 12 8H32V56H12C8.68629 56 6 53.3137 6 50V14Z" fill="#107C41"/>
  <path d="M13.5 23H17.8L21 30.5L24.2 23H28.5L23.2 32L28.8 41H24.5L21 33.5L17.5 41H13.2L18.8 32L13.5 23Z" fill="white"/>
</svg>
